<svg width="37" height="26" viewBox="0 0 37 26" fill="none" xmlns="http://www.w3.org/2000/svg">
<path d="M36.0175 11.8312L24.5628 0.456157C24.2542 0.160151 23.8408 -0.003641 23.4118 6.1429e-05C22.9827 0.00376386 22.5723 0.174664 22.2689 0.475952C21.9655 0.77724 21.7934 1.18481 21.7897 1.61088C21.786 2.03695 21.9509 2.44743 22.249 2.75391L30.9103 11.355H2.13296C1.69897 11.355 1.28275 11.5262 0.975866 11.831C0.668986 12.1357 0.496582 12.5491 0.496582 12.98C0.496582 13.411 0.668986 13.8243 0.975866 14.1291C1.28275 14.4338 1.69897 14.605 2.13296 14.605H30.9103L22.249 23.2062C22.0927 23.3561 21.968 23.5354 21.8823 23.7336C21.7965 23.9319 21.7514 24.1451 21.7495 24.3609C21.7476 24.5766 21.789 24.7906 21.8713 24.9903C21.9535 25.19 22.075 25.3715 22.2287 25.524C22.3823 25.6766 22.565 25.7973 22.7661 25.879C22.9673 25.9607 23.1827 26.0018 23.4 25.9999C23.6173 25.9981 23.832 25.9532 24.0317 25.8681C24.2313 25.7829 24.4119 25.6591 24.5628 25.5039L36.0175 14.1289C36.3242 13.8242 36.4966 13.4109 36.4966 12.98C36.4966 12.5491 36.3242 12.1359 36.0175 11.8312Z" fill="#2A2A2A"/>
</svg>
