<svg width="37" height="26" viewBox="0 0 37 26" fill="none" xmlns="http://www.w3.org/2000/svg">
<path d="M0.975693 11.8312L12.4303 0.456157C12.739 0.160151 13.1523 -0.003641 13.5814 6.1429e-05C14.0104 0.00376386 14.4209 0.174664 14.7243 0.475952C15.0277 0.77724 15.1998 1.18481 15.2035 1.61088C15.2072 2.03695 15.0423 2.44743 14.7442 2.75391L6.08283 11.355H34.8602C35.2942 11.355 35.7104 11.5262 36.0173 11.831C36.3242 12.1357 36.4966 12.5491 36.4966 12.98C36.4966 13.411 36.3242 13.8243 36.0173 14.1291C35.7104 14.4338 35.2942 14.605 34.8602 14.605H6.08283L14.7442 23.2062C14.9005 23.3561 15.0251 23.5354 15.1109 23.7336C15.1967 23.9319 15.2418 24.1451 15.2437 24.3609C15.2456 24.5766 15.2042 24.7906 15.1219 24.9903C15.0396 25.19 14.9181 25.3715 14.7645 25.524C14.6108 25.6766 14.4281 25.7973 14.227 25.879C14.0259 25.9607 13.8104 26.0018 13.5932 25.9999C13.3759 25.9981 13.1612 25.9532 12.9615 25.8681C12.7619 25.7829 12.5813 25.6591 12.4303 25.5039L0.975693 14.1289C0.668919 13.8242 0.496582 13.4109 0.496582 12.98C0.496582 12.5491 0.668919 12.1359 0.975693 11.8312Z" fill="#2A2A2A"/>
</svg>
