<svg width="126" height="101" viewBox="0 0 126 101" fill="none" xmlns="http://www.w3.org/2000/svg">
<g clip-path="url(#clip0_2008_1917)">
<rect x="39.707" y="27.1523" width="46.777" height="46.777" fill="white"/>
<path d="M97.3838 43.0967C95.8262 41.5898 94.2637 40.0718 92.6963 38.5425C92.6543 36.4263 92.5996 34.3091 92.5322 32.1909C92.4429 29.3564 91.2139 26.6523 89.1162 24.5518C87.0186 22.4512 84.3101 21.2339 81.4727 21.1445C79.3516 21.0791 77.2305 21.0244 75.1094 20.9805C73.5801 19.4248 72.061 17.8706 70.5522 16.3179C68.5264 14.2334 65.8911 13.0688 63.0889 13.0703C60.2866 13.0718 57.6514 14.2422 55.6284 16.3164C54.1187 17.8721 52.5977 19.4302 51.0654 20.9907C48.9453 21.0337 46.8252 21.0884 44.7051 21.1548C38.8633 21.354 33.8374 26.374 33.6382 32.1997C33.5708 34.3179 33.5156 36.4351 33.4727 38.5513C31.9102 40.0796 30.3501 41.5972 28.7925 43.104C26.7153 45.124 25.5464 47.7607 25.5479 50.5439C25.5493 53.3271 26.708 55.9639 28.7939 57.9912C30.3506 59.4971 31.9102 61.0132 33.4727 62.5396C33.5166 64.6577 33.5718 66.7764 33.6382 68.8955C33.7261 71.7344 34.9565 74.4312 37.0513 76.5347C39.146 78.6382 41.8633 79.8525 44.7051 79.9404C46.8262 80.0078 48.9473 80.063 51.0684 80.106C52.5977 81.6616 54.1162 83.2153 55.624 84.7671C57.6499 86.8501 60.2881 88.0146 63.0947 88.0132C65.9014 88.0117 68.5322 86.8516 70.5654 84.7686C72.0742 83.2139 73.5938 81.6572 75.124 80.0986C77.2441 80.0547 79.3643 79.9995 81.4844 79.9331C87.3247 79.7354 92.3521 74.7153 92.5527 68.8882C92.6191 66.772 92.6738 64.6558 92.7168 62.5396C94.2793 61.0112 95.8394 59.4932 97.397 57.9854C99.4756 55.9668 100.643 53.333 100.643 50.5396C100.643 47.7461 99.4653 45.124 97.3838 43.0967ZM81.7378 45.7935C75.4126 52.3662 68.9863 59.0854 62.667 65.7505C62.1532 66.2947 61.5339 66.7284 60.8468 67.0251C60.1597 67.3218 59.4193 67.4753 58.6709 67.4761H58.646C57.8994 67.4703 57.1615 67.3154 56.4755 67.0206C55.7896 66.7258 55.1694 66.297 54.6514 65.7593C51.2734 62.271 47.8843 58.7944 44.4839 55.3296C43.9695 54.8126 43.5637 54.198 43.2903 53.522C43.0168 52.8459 42.8813 52.122 42.8917 51.3928C42.9021 50.6636 43.0581 49.9439 43.3507 49.2759C43.6432 48.6078 44.0664 48.0051 44.5952 47.5029C45.6606 46.4734 47.0894 45.9063 48.5708 45.9249C50.0522 45.9436 51.4663 46.5465 52.5054 47.6025C54.5249 49.6729 56.5479 51.7495 58.5742 53.8325C63.5913 48.5752 68.6333 43.2856 73.5962 38.0796C75.7026 35.8633 79.2168 35.8267 81.4756 37.9653C83.7344 40.104 83.8604 43.5889 81.7378 45.7935Z" fill="#FF6D2C"/>
</g>
<defs>
<clipPath id="clip0_2008_1917">
<rect width="75" height="75" fill="white" transform="translate(25.5 13.041)"/>
</clipPath>
</defs>
</svg>
