<svg width="126" height="101" viewBox="0 0 126 101" fill="none" xmlns="http://www.w3.org/2000/svg">
<g clip-path="url(#clip0_2008_1943)">
<path d="M62.9998 88.0425C83.2756 88.0425 99.7124 71.6057 99.7124 51.3298C99.7124 31.054 83.2756 14.6172 62.9998 14.6172C42.7239 14.6172 26.2871 31.054 26.2871 51.3298C26.2871 71.6057 42.7239 88.0425 62.9998 88.0425Z" fill="#FF6D2C"/>
<path d="M99.713 51.3268C99.713 71.6027 83.2757 88.04 62.9998 88.04C52.2358 88.04 42.5546 83.4086 35.8394 76.0288C42.1893 81.2808 50.3347 84.4353 59.2186 84.4353C79.4945 84.4353 95.9318 67.998 95.9318 47.7221C95.9318 38.2071 92.3122 29.5377 86.3729 23.0156C94.5198 29.7491 99.713 39.9316 99.713 51.3268Z" fill="#DE4F0F"/>
<path d="M62.9999 79.616C78.6216 79.616 91.2854 66.9521 91.2854 51.3305C91.2854 35.7088 78.6216 23.0449 62.9999 23.0449C47.3782 23.0449 34.7144 35.7088 34.7144 51.3305C34.7144 66.9521 47.3782 79.616 62.9999 79.616Z" fill="#F9F3F1"/>
<path d="M56.594 39.54C59.8747 39.54 62.6463 41.7742 62.6463 45.1681C62.6463 51.2486 53.483 53.2284 53.483 56.4808V57.5555H61.7979C62.3069 57.5555 62.7876 58.1495 62.7876 58.8564C62.7876 59.5635 62.3069 60.2139 61.7979 60.2139H51.7294C51.1638 60.2139 50.4002 59.818 50.4002 59.224V56.4806C50.4002 51.899 59.6483 49.6082 59.6483 45.2526C59.6483 43.8668 58.7434 42.2831 56.5938 42.2831C55.0101 42.2831 53.7374 43.1598 53.7374 45.083C53.7374 45.6485 53.1434 46.2143 52.1536 46.2143C51.3617 46.2143 50.7961 45.8183 50.7961 44.5455C50.7963 41.5197 53.5114 39.54 56.594 39.54ZM70.9048 55.5759H63.9475C63.3537 55.5759 62.9012 55.1517 62.9012 54.4729C62.9012 54.2749 62.9577 54.0487 63.0708 53.8506L69.915 40.3602C70.226 39.7662 70.7352 39.54 71.2159 39.54C71.7815 39.54 72.7147 39.9925 72.7147 40.6996C72.7147 40.8409 72.6582 40.9823 72.5734 41.1521L66.7473 52.7759H70.9048V48.8729C70.9048 48.1659 71.6403 47.8832 72.4038 47.8832C73.1391 47.8832 73.9026 48.1659 73.9026 48.8729V52.7759H75.2883C75.9671 52.7759 76.3064 53.483 76.3064 54.19C76.3064 54.8688 75.8256 55.5759 75.2883 55.5759H73.9026V59.2243C73.9026 59.8748 73.139 60.2142 72.4038 60.2142C71.6401 60.2142 70.9048 59.8748 70.9048 59.2243V55.5759ZM62.9999 31.7848C62.6995 31.7848 62.4114 31.6655 62.199 31.4531C61.9866 31.2407 61.8673 30.9526 61.8673 30.6522V26.1482C61.8673 25.8479 61.9866 25.5598 62.199 25.3474C62.4114 25.135 62.6995 25.0156 62.9999 25.0156C63.3003 25.0156 63.5884 25.135 63.8008 25.3474C64.0132 25.5598 64.1325 25.8479 64.1325 26.1482V30.6522C64.1325 30.9526 64.0132 31.2407 63.8008 31.4531C63.5884 31.6655 63.3003 31.7848 62.9999 31.7848ZM62.9999 77.6375C62.6995 77.6375 62.4114 77.5182 62.199 77.3058C61.9866 77.0934 61.8673 76.8053 61.8673 76.5049V72.0009C61.8673 71.7005 61.9866 71.4125 62.199 71.2C62.4114 70.9876 62.6995 70.8683 62.9999 70.8683C63.3003 70.8683 63.5884 70.9876 63.8008 71.2C64.0132 71.4125 64.1325 71.7005 64.1325 72.0009V76.5049C64.1325 76.8053 64.0132 77.0934 63.8008 77.3058C63.5884 77.5182 63.3003 77.6375 62.9999 77.6375ZM88.1782 52.4592H83.6743C83.0486 52.4592 82.5416 51.9521 82.5416 51.3266C82.5416 50.7011 83.0486 50.1939 83.6743 50.1939H88.1782C88.8039 50.1939 89.3108 50.7011 89.3108 51.3266C89.3108 51.9521 88.8039 52.4592 88.1782 52.4592ZM42.3255 52.4592H37.8216C37.5212 52.4592 37.2331 52.3398 37.0207 52.1274C36.8083 51.915 36.689 51.627 36.689 51.3266C36.689 51.0262 36.8083 50.7381 37.0207 50.5257C37.2331 50.3133 37.5212 50.1939 37.8216 50.1939H42.3255C42.6259 50.1939 42.914 50.3133 43.1264 50.5257C43.3388 50.7381 43.4582 51.0262 43.4582 51.3266C43.4582 51.627 43.3388 51.915 43.1264 52.1274C42.914 52.3398 42.6259 52.4592 42.3255 52.4592ZM52.2581 33.8523C52.059 33.8525 51.8635 33.8002 51.6911 33.7008C51.5187 33.6013 51.3756 33.4582 51.2762 33.2858L50.086 31.2244C49.9376 30.9643 49.8981 30.6561 49.9763 30.3671C50.0545 30.078 50.244 29.8317 50.5033 29.682C50.7626 29.5323 51.0707 29.4914 51.3601 29.5681C51.6495 29.6449 51.8967 29.8332 52.0477 30.0917L53.2379 32.1532C53.3373 32.3253 53.3897 32.5206 53.3897 32.7193C53.3898 32.9181 53.3375 33.1133 53.2383 33.2855C53.139 33.4577 52.9961 33.6007 52.8241 33.7002C52.652 33.7997 52.4568 33.8521 52.2581 33.8523ZM74.9338 73.1278C74.7348 73.128 74.5393 73.0758 74.3669 72.9763C74.1945 72.8769 74.0514 72.7338 73.952 72.5614L72.7618 70.4999C72.6133 70.2399 72.5739 69.9316 72.6521 69.6426C72.7303 69.3536 72.9198 69.1073 73.1791 68.9576C73.4384 68.8078 73.7464 68.7669 74.0359 68.8437C74.3253 68.9205 74.5725 69.1087 74.7235 69.3673L75.9137 71.4288C76.0131 71.6009 76.0654 71.7961 76.0655 71.9948C76.0656 72.1936 76.0133 72.3889 75.914 72.561C75.8147 72.7332 75.6719 72.8762 75.4999 72.9757C75.3278 73.0752 75.1326 73.1277 74.9338 73.1278ZM44.3917 41.7166C44.1932 41.7166 43.9982 41.6642 43.8264 41.5647L41.7649 40.3745C41.6354 40.3005 41.5217 40.2017 41.4304 40.0837C41.3391 39.9656 41.2721 39.8307 41.2331 39.6867C41.1941 39.5427 41.184 39.3924 41.2033 39.2444C41.2226 39.0964 41.2709 38.9538 41.3455 38.8245C41.4201 38.6953 41.5195 38.5821 41.638 38.4914C41.7565 38.4008 41.8918 38.3344 42.036 38.2961C42.1802 38.2579 42.3306 38.2485 42.4784 38.2685C42.6263 38.2885 42.7687 38.3376 42.8976 38.4128L44.959 39.603C45.1751 39.7277 45.344 39.9202 45.4394 40.1507C45.5348 40.3811 45.5515 40.6367 45.4868 40.8776C45.4222 41.1185 45.2798 41.3314 45.0818 41.4831C44.8837 41.6348 44.6412 41.7169 44.3917 41.7166ZM83.6672 64.3924C83.4687 64.3924 83.2737 64.34 83.102 64.2405L81.0406 63.0503C80.7821 62.8993 80.5938 62.6521 80.517 62.3627C80.4402 62.0733 80.4812 61.7652 80.6309 61.5059C80.7806 61.2466 81.0269 61.0571 81.3159 60.9789C81.605 60.9007 81.9132 60.9401 82.1732 61.0886L84.2346 62.2788C84.4506 62.4034 84.6195 62.596 84.7149 62.8264C84.8104 63.0569 84.8271 63.3125 84.7624 63.5534C84.6977 63.7943 84.5553 64.0072 84.3573 64.1589C84.1593 64.3106 83.9167 64.3927 83.6672 64.3924ZM42.3324 64.3924C42.083 64.3927 41.8404 64.3106 41.6424 64.1589C41.4443 64.0072 41.3019 63.7943 41.2373 63.5534C41.1726 63.3125 41.1893 63.0569 41.2847 62.8264C41.3802 62.596 41.549 62.4034 41.7651 62.2788L43.8266 61.0886C44.0863 60.9444 44.3924 60.908 44.6787 60.9873C44.9651 61.0666 45.2088 61.2553 45.3574 61.5126C45.5059 61.7699 45.5474 62.0753 45.473 62.3629C45.3985 62.6506 45.214 62.8974 44.9592 63.0503L42.8977 64.2405C42.7259 64.34 42.5309 64.3924 42.3324 64.3924ZM81.6081 41.7166C81.3587 41.7169 81.1161 41.6348 80.9181 41.4831C80.72 41.3314 80.5776 41.1185 80.513 40.8776C80.4483 40.6367 80.465 40.3811 80.5604 40.1507C80.6558 39.9202 80.8247 39.7277 81.0408 39.603L83.1021 38.4128C83.3621 38.2644 83.6704 38.2249 83.9594 38.3031C84.2484 38.3813 84.4947 38.5708 84.6444 38.8301C84.7942 39.0894 84.8351 39.3975 84.7583 39.6869C84.6815 39.9763 84.4933 40.2235 84.2347 40.3745L82.1734 41.5647C82.0016 41.6641 81.8066 41.7165 81.6081 41.7166ZM51.0658 73.1278C50.8671 73.1277 50.6719 73.0752 50.4998 72.9757C50.3278 72.8762 50.1849 72.7332 50.0856 72.561C49.9863 72.3889 49.9341 72.1936 49.9342 71.9948C49.9342 71.7961 49.9866 71.6009 50.086 71.4288L51.2762 69.3673C51.3505 69.2384 51.4495 69.1255 51.5675 69.035C51.6855 68.9444 51.8202 68.878 51.9639 68.8395C52.1075 68.801 52.2574 68.7912 52.4049 68.8106C52.5523 68.83 52.6945 68.8783 52.8233 68.9527C53.0835 69.1029 53.2733 69.3503 53.351 69.6405C53.4288 69.9306 53.3881 70.2398 53.2379 70.4999L52.0477 72.5614C51.9483 72.7338 51.8051 72.8769 51.6327 72.9763C51.4604 73.0758 51.2648 73.128 51.0658 73.1278Z" fill="#9C451D"/>
<path d="M89.8032 28.271L87.4344 16.1712C87.0082 13.9942 84.8441 12.6191 82.6922 13.1582C80.6086 13.6801 79.3477 15.7977 79.8816 17.8782L81.38 23.7168C81.5479 24.3708 81.0796 25.0162 80.4059 25.0596L74.3907 25.4476C72.2472 25.5859 70.6256 27.442 70.7763 29.5847C70.9319 31.7976 72.9107 33.428 75.1125 33.1574L87.3499 31.6533C88.9938 31.451 90.1215 29.8967 89.8032 28.271Z" fill="#FFAF3E"/>
<path d="M87.3501 31.6522L75.1124 33.1563C74.954 33.1755 74.7946 33.1851 74.6351 33.185C72.6312 33.185 70.9203 31.6356 70.7769 29.5834C70.7504 29.2124 70.7778 28.8396 70.8584 28.4765C71.4308 29.4611 72.4954 30.1059 73.6838 30.1059C73.8167 30.1059 73.9526 30.0968 74.0886 30.0803L84.4373 28.8088C85.828 28.6381 86.7825 27.3228 86.5137 25.9487L84.5098 15.7148C84.2771 14.5264 83.4331 13.6219 82.3745 13.2518C82.4794 13.2165 82.5857 13.1853 82.6931 13.1582C84.8449 12.6192 87.0089 13.9933 87.4348 16.1708L89.8041 28.2697C90.1211 29.8958 88.9947 31.4497 87.3501 31.6522Z" fill="#FF9500"/>
</g>
<defs>
<clipPath id="clip0_2008_1943">
<rect width="75" height="75" fill="white" transform="translate(25.5 13.041)"/>
</clipPath>
</defs>
</svg>
