<svg width="16" height="16" viewBox="0 0 16 16" fill="none" xmlns="http://www.w3.org/2000/svg">
<path d="M8 0C3.5888 0 0 3.5888 0 8C0 12.4112 3.5888 16 8 16C12.4112 16 16 12.4112 16 8C16 3.5888 12.4112 0 8 0ZM12.8 10.9333C12.8 11.3744 12.4411 11.7333 12 11.7333H4C3.55893 11.7333 3.2 11.3744 3.2 10.9333V6.56C3.20001 6.50736 3.2156 6.45591 3.2448 6.41211C3.274 6.36832 3.31551 6.33414 3.3641 6.3139C3.41269 6.29365 3.46618 6.28824 3.51784 6.29834C3.5695 6.30845 3.61702 6.33361 3.6544 6.37067L7.09387 9.78133C7.5776 10.2347 8.40853 10.2459 8.93013 9.7584L12.3456 6.3808C12.3456 6.33689 12.3564 6.29367 12.3771 6.25495C12.3978 6.21624 12.4278 6.18324 12.4643 6.15888C12.5009 6.13452 12.5428 6.11956 12.5865 6.11533C12.6302 6.11109 12.6743 6.11771 12.7148 6.13459C12.7554 6.15148 12.7911 6.17811 12.8189 6.21213C12.8466 6.24614 12.8656 6.28648 12.874 6.32957C12.8824 6.37266 12.8801 6.41716 12.8672 6.45913C12.8542 6.50109 12.8312 6.53922 12.8 6.57013V10.9333ZM12.7211 5.26027L8.56267 9.37227C8.40213 9.52267 8.20907 9.6 8 9.6C7.79733 9.6 7.6016 9.5264 7.464 9.39787L7.45867 9.39253L3.28 5.248C3.25455 5.22277 3.23444 5.19268 3.22087 5.1595C3.20731 5.12633 3.20058 5.09077 3.20107 5.05493C3.20483 4.8452 3.29054 4.64528 3.43986 4.49795C3.58918 4.35063 3.79024 4.26761 4 4.26667H12C12.4411 4.26667 12.8 4.6256 12.8 5.06667C12.8002 5.13908 12.7719 5.20866 12.7211 5.26027Z" fill="#FF6D2C"/>
</svg>
