<svg width="48" height="49" viewBox="0 0 48 49" fill="none" xmlns="http://www.w3.org/2000/svg">
<path d="M47.9966 24.008C47.9966 36.1327 39.0118 46.1564 27.3397 47.783C26.2483 47.9344 25.1317 48.0134 23.9983 48.0134C22.69 48.0134 21.4053 47.9091 20.1541 47.7073C8.72758 45.8671 0 35.9561 0 24.008C0 10.7497 10.7455 0.000976562 24 0.000976562C37.2545 0.000976562 48 10.7497 48 24.008H47.9966Z" fill="#FF6D2C"/>
<path d="M27.3397 19.2773V24.507H33.8072L32.7831 31.5517H27.3397V47.7824C26.2483 47.9338 25.1317 48.0128 23.9983 48.0128C22.69 48.0128 21.4053 47.9085 20.1541 47.7067V31.5517H14.1895V24.507H20.1541V18.1083C20.1541 14.1385 23.3711 10.9189 27.3414 10.9189V10.9223C27.3531 10.9223 27.3632 10.9189 27.375 10.9189H33.8088V17.0116H29.6048C28.3554 17.0116 27.3414 18.0259 27.3414 19.2757L27.3397 19.2773Z" fill="#0B2353"/>
</svg>
