<svg width="16" height="16" viewBox="0 0 16 16" fill="none" xmlns="http://www.w3.org/2000/svg">
<path d="M8 0C3.58203 0 0 3.58203 0 8C0 12.418 3.58203 16 8 16C12.418 16 16 12.418 16 8C16 3.58203 12.418 0 8 0ZM12.2246 11.6728L11.584 12.3135C11.4697 12.4277 11.1348 12.499 11.124 12.499C9.09766 12.5166 7.1465 11.7207 5.71291 10.2871C4.27541 8.84866 3.47853 6.89062 3.5 4.85744C3.5 4.85647 3.57325 4.53125 3.6875 4.41797L4.32812 3.77734C4.5625 3.542 5.01269 3.43553 5.32812 3.541L5.46291 3.58594C5.77738 3.69141 6.10744 4.03906 6.19434 4.35938L6.51662 5.542C6.60353 5.86328 6.48634 6.32031 6.25197 6.55469L5.82422 6.98244C6.24416 8.53712 7.46387 9.75684 9.01856 10.1777L9.44628 9.75C9.68163 9.51466 10.1387 9.39747 10.459 9.48438L11.6416 9.80762C11.9619 9.89553 12.3096 10.2237 12.415 10.5381L12.46 10.6748C12.5645 10.9893 12.459 11.4395 12.2246 11.6728Z" fill="#FF6D2C"/>
</svg>
