<svg width="126" height="101" viewBox="0 0 126 101" fill="none" xmlns="http://www.w3.org/2000/svg">
<path d="M93.9892 41.9368L72.9195 39.9827L64.55 20.548C63.9639 19.1871 62.0345 19.1871 61.4486 20.548L53.0791 39.9826L32.0094 41.9368C30.534 42.0736 29.9379 43.9086 31.0509 44.8865L46.9481 58.8519L42.2957 79.4943C41.9699 80.9398 43.531 82.0737 44.8049 81.3174L62.9993 70.5138L81.1937 81.3174C82.4678 82.0739 84.0285 80.9398 83.7029 79.4943L79.0504 58.8519L94.9477 44.8865C96.0607 43.9086 95.4644 42.0736 93.9892 41.9368Z" fill="#DE4F0F"/>
<path d="M67.5934 27.6153L64.5498 20.548C63.9638 19.1871 62.0344 19.1871 61.4485 20.548L53.0789 39.9826L32.0094 41.9368C30.534 42.0736 29.9379 43.9086 31.0509 44.8865L46.9481 58.8519L42.2957 79.4943C41.9699 80.9398 43.531 82.0737 44.8049 81.3174L47.2265 79.8795C51.1963 54.1814 62.3569 35.3171 67.5934 27.6153Z" fill="#FF6D2C"/>
</svg>
