<svg width="96" height="16" viewBox="0 0 96 16" fill="none" xmlns="http://www.w3.org/2000/svg">
<path d="M17.7235 5.9867C17.5793 5.56967 17.1968 5.26649 16.736 5.2032L12.0674 4.5636L9.98129 0.589349C9.56823 -0.19645 8.20305 -0.19645 7.78999 0.589349L5.70387 4.5636L1.04638 5.2032C0.586814 5.26649 0.204315 5.57073 0.0601279 5.98794C-0.0840593 6.40391 0.035753 6.86142 0.369315 7.16779L3.74731 10.2721L2.95043 14.6519C2.87225 15.0839 3.0605 15.5218 3.43681 15.7799C3.81443 16.0368 4.31431 16.0704 4.72493 15.8664L8.88517 13.798L13.0576 15.8664C13.2361 15.9551 13.4317 15.999 13.6259 15.999C13.8788 15.999 14.1318 15.924 14.3457 15.7801C14.7222 15.5208 14.9103 15.0841 14.8321 14.6521L14.0365 10.2723L17.4145 7.16796C17.7481 6.86248 17.8677 6.40391 17.7235 5.9867Z" fill="#FF6D2C"/>
<path d="M37.2772 5.9867C37.1331 5.56967 36.7506 5.26649 36.2897 5.2032L31.6211 4.5636L29.535 0.589349C29.1219 -0.19645 27.7568 -0.19645 27.3437 0.589349L25.2576 4.5636L20.6001 5.2032C20.1405 5.26649 19.758 5.57073 19.6138 5.98794C19.4697 6.40391 19.5895 6.86142 19.923 7.16779L23.301 10.2721L22.5041 14.6519C22.426 15.0839 22.6142 15.5231 22.9905 15.7799C23.367 16.0368 23.868 16.0704 24.2786 15.8664L28.4389 13.798L32.6113 15.8664C32.7898 15.9551 32.9854 15.999 33.1796 15.999C33.4326 15.999 33.6855 15.924 33.8994 15.7801C34.2759 15.5208 34.464 15.0841 34.3858 14.6521L33.5902 10.2723L36.9682 7.16796C37.3018 6.86248 37.4214 6.40391 37.2772 5.9867Z" fill="#FF6D2C"/>
<path d="M56.8319 5.9867C56.6877 5.56967 56.3052 5.26649 55.8444 5.2032L51.1758 4.5636L49.0897 0.589349C48.6766 -0.19645 47.3114 -0.19645 46.8984 0.589349L44.8123 4.5636L40.1548 5.2032C39.6952 5.26649 39.3127 5.57073 39.1685 5.98794C39.0243 6.40391 39.1442 6.86142 39.4777 7.16779L42.8557 10.2721L42.0588 14.6519C41.9806 15.0839 42.1689 15.5218 42.5452 15.7799C42.9228 16.0368 43.4227 16.0704 43.8333 15.8664L47.9934 13.798L52.1658 15.8664C52.3443 15.9551 52.5399 15.999 52.7341 15.999C52.9871 15.999 53.24 15.924 53.4539 15.7801C53.8304 15.5208 54.0185 15.0841 53.9403 14.6521L53.1447 10.2723L56.5227 7.16796C56.8565 6.86248 56.9761 6.40391 56.8319 5.9867Z" fill="#FF6D2C"/>
<path d="M76.3856 5.9867C76.2415 5.56967 75.859 5.26649 75.3981 5.2032L70.7295 4.5636L68.6434 0.589349C68.2303 -0.19645 66.8652 -0.19645 66.4521 0.589349L64.366 4.5636L59.7085 5.2032C59.2489 5.26649 58.8664 5.57073 58.7222 5.98794C58.578 6.40391 58.6979 6.86142 59.0314 7.16779L62.4094 10.2721L61.6125 14.6519C61.5344 15.0839 61.7226 15.5218 62.0989 15.7799C62.4765 16.0368 62.9764 16.0704 63.387 15.8664L67.5471 13.798L71.7195 15.8664C71.898 15.9551 72.0936 15.999 72.2878 15.999C72.5408 15.999 72.7937 15.924 73.0076 15.7801C73.3841 15.5208 73.5722 15.0841 73.494 14.6521L72.6985 10.2723L76.0764 7.16796C76.41 6.86248 76.5298 6.40391 76.3856 5.9867Z" fill="#FF6D2C"/>
<path d="M95.9403 5.9867C95.7948 5.56967 95.4136 5.26649 94.9528 5.2032L90.2842 4.5636L88.1981 0.589349C87.785 -0.19645 86.4198 -0.19645 86.0068 0.589349L83.9207 4.5636L79.2632 5.2032C78.8036 5.26649 78.4211 5.57073 78.2769 5.98794C78.1327 6.40391 78.2526 6.86142 78.5861 7.16779L81.9641 10.2721L81.1672 14.6519C81.089 15.0839 81.2773 15.5218 81.6536 15.7799C81.8662 15.9251 82.118 15.9988 82.371 15.9988C82.5665 15.9988 82.7621 15.9549 82.9429 15.8662L87.1031 13.7978L91.2766 15.8662C91.6873 16.0725 92.1858 16.0379 92.5636 15.7787C92.9388 15.5206 93.1271 15.0839 93.0489 14.6517L92.2533 10.2719L95.6313 7.16761C95.9647 6.86248 96.0834 6.40391 95.9403 5.9867Z" fill="#FF6D2C"/>
</svg>
