<svg width="126" height="101" viewBox="0 0 126 101" fill="none" xmlns="http://www.w3.org/2000/svg">
<g clip-path="url(#clip0_2008_1926)">
<path d="M44.2939 25.5922L66.1699 47.4682L63.2181 50.6688L60.266 53.9316L48.7064 42.3723L38.1725 31.9004C38.1102 31.8381 38.1102 31.776 38.1102 31.776L35.6553 23.6035L36.3079 23.7588L44.2939 25.5922Z" fill="#FF9362"/>
<path d="M36.3079 23.7588L63.2181 50.669L60.266 53.9318L48.7064 42.3724L38.1725 31.9004C38.1102 31.8381 38.1102 31.776 38.1102 31.776L35.6553 23.6035L36.3079 23.7588Z" fill="#D16B3C"/>
<path d="M66.1702 53.6218L66.1391 53.6528C61.1982 58.7799 62.4413 65.4298 66.1081 69.0965L81.7584 84.8131C86.0466 89.1013 92.976 89.1325 97.2954 84.8131C101.552 80.556 101.584 73.5644 97.2954 69.2762L81.645 53.5595C77.9472 49.9239 71.2973 48.6809 66.1702 53.6218Z" fill="#D16B3C"/>
<path d="M75.5853 59.9281L91.0181 75.4273C91.8881 76.2973 91.8572 77.6957 91.0181 78.5347C90.5831 78.9698 90.0238 79.2185 89.4644 79.2182C88.8739 79.1873 88.3458 78.9698 87.9106 78.5347L72.4779 63.0355C71.6388 62.1964 71.6078 60.7982 72.4779 59.9281C73.317 59.0891 74.7462 59.0891 75.5853 59.9281Z" fill="#FFAF3E"/>
<path d="M46.0654 21.6463C46.7803 22.1123 46.8422 23.0445 46.283 23.6038L36.1216 33.7651C35.5623 34.3244 34.6301 34.2624 34.2261 33.5477L25.8074 20.1668C25.3102 19.2969 25.4034 18.2092 26.1805 17.4944L29.9403 13.7345C30.655 12.9577 31.7737 12.8335 32.6126 13.3617L46.0654 21.6463Z" fill="#FF6D2C"/>
<path d="M66.1392 53.6521L66.1702 53.6211L97.2954 84.8127C92.976 89.1321 86.0465 89.1009 81.7583 84.8127L66.108 69.096C62.4413 65.4292 61.1982 58.7792 66.1392 53.6521Z" fill="#9C451D"/>
<path d="M28.076 15.5977L41.218 28.6677L36.1218 33.7639C35.5625 34.3232 34.6303 34.2612 34.2263 33.5465L25.8074 20.1656C25.3102 19.2957 25.4034 18.208 26.1805 17.4932L28.076 15.5977Z" fill="#DE4F0F"/>
<path d="M72.4779 59.9297L91.0181 78.5364C90.5831 78.9715 90.0238 79.2202 89.4644 79.2199C88.8739 79.189 88.3458 78.9715 87.9106 78.5364L72.4779 63.0371C71.6388 62.198 71.6078 60.7998 72.4779 59.9297Z" fill="#FF9500"/>
<path d="M96.6337 35.5408C94.1727 38.0017 90.7888 39.408 87.3173 39.408C85.955 39.408 85.164 39.232 83.8458 39.0123L51.4708 71.3855L51.6464 72.5281C53.0968 80.6578 46.8566 88.0406 38.6826 88.0406C37.3643 88.0406 36.09 87.8649 34.8594 87.4696C33.9805 87.2056 33.673 86.0633 34.332 85.404L38.7119 81.0534V74.857H32.4863L28.1358 79.2079C27.4765 79.8669 26.3339 79.5593 26.0702 78.6805C24.664 74.0662 25.8946 69.0126 29.3661 65.5407C31.827 63.0797 35.2109 61.6735 38.6825 61.6735C40.0448 61.6735 40.8358 61.8494 42.1543 62.0691L74.5292 29.6961L74.3533 28.5535C73.6064 24.291 74.9685 19.9404 78.0009 16.9082C80.4618 14.4033 83.8017 13.041 87.3173 13.041C88.6356 13.041 89.9102 13.2166 91.1405 13.6123C92.0194 13.876 92.3272 15.0185 91.6678 15.6776L87.288 20.0281V26.2244H93.5134L97.8643 21.8738C98.5233 21.2145 99.6659 21.5221 99.9295 22.4012C101.336 27.0154 100.105 32.069 96.6337 35.5408Z" fill="#FF6D2C"/>
<path d="M96.6337 35.5412C94.1728 38.0022 90.7889 39.4084 87.3174 39.4084C85.9551 39.4084 85.1641 39.2325 83.8459 39.0128L51.4709 71.386L51.6465 72.5285C53.0969 80.6582 46.8566 88.041 38.6827 88.041C37.3644 88.041 36.0901 87.8654 34.8595 87.47C33.9806 87.2061 33.6731 86.0638 34.3321 85.4045L38.712 81.0539V74.8575L87.2881 26.2249H93.5135L97.8643 21.8743C98.5234 21.215 99.666 21.5226 99.9296 22.4016C101.336 27.0159 100.105 32.0694 96.6337 35.5412Z" fill="#DE4F0F"/>
</g>
<defs>
<clipPath id="clip0_2008_1926">
<rect width="75" height="75" fill="white" transform="translate(25.5 13.041)"/>
</clipPath>
</defs>
</svg>
