<svg width="48" height="49" viewBox="0 0 48 49" fill="none" xmlns="http://www.w3.org/2000/svg">
<path d="M47.9966 24.008C47.9966 36.1327 39.0118 46.1564 27.3397 47.783C26.2483 47.9344 25.1317 48.0134 23.9983 48.0134C22.69 48.0134 21.4053 47.9092 20.1541 47.7073C8.72758 45.8671 0 35.9561 0 24.008C0 10.7497 10.7455 0.000976562 24 0.000976562C37.2545 0.000976562 48 10.7497 48 24.008H47.9966Z" fill="#FF6D2C"/>
<path d="M9.73301 10.5889L20.8014 25.3914L9.66406 37.4269H12.1714L21.923 26.8902L29.8014 37.4269H38.3322L26.6416 21.7917L37.0088 10.5889H34.5015L25.5217 20.293L18.2655 10.5889H9.73468H9.73301ZM13.4191 12.4358H17.3373L34.6428 35.58H30.7246L13.4191 12.4358Z" fill="#0B2353"/>
</svg>
