<svg width="48" height="49" viewBox="0 0 48 49" fill="none" xmlns="http://www.w3.org/2000/svg">
<path d="M48 24.0071C48 10.7483 37.2549 0 24 0C10.7452 0 0 10.7483 0 24.0071C0 37.2658 10.7452 48.0142 24 48.0142C37.2549 48.0142 48 37.2658 48 24.0071Z" fill="#FF6D2C"/>
<path d="M39.1124 19.0324C38.9235 17.2088 38.5171 15.1929 37.0212 14.1335C35.8626 13.3119 34.3397 13.2816 32.9181 13.2833C29.9128 13.2833 26.9058 13.2883 23.9006 13.29C21.01 13.2934 18.1194 13.2951 15.2288 13.2984C14.0213 13.2984 12.8475 13.2057 11.726 13.7286C10.763 14.1773 10.0092 15.031 9.55553 15.9807C8.92648 17.3016 8.79494 18.7979 8.71905 20.2588C8.57907 22.9192 8.59425 25.5862 8.76121 28.2449C8.88432 30.1849 9.19631 32.329 10.6956 33.5655C12.0245 34.6604 13.8998 34.7144 15.6234 34.7161C21.0943 34.7211 26.5669 34.7262 32.0394 34.7295C32.741 34.7312 33.4729 34.7177 34.188 34.6401C35.5945 34.4883 36.9352 34.0851 37.8391 33.0426C38.7515 31.9916 38.986 30.529 39.1242 29.144C39.4615 25.7836 39.4582 22.3911 39.1124 19.0324ZM20.7368 28.7172V19.2956L28.8925 24.0056L20.7368 28.7172Z" fill="#0B2353"/>
</svg>
